<svg width="393" height="284" viewBox="0 0 393 284" fill="none" xmlns="http://www.w3.org/2000/svg">
<path d="M222.392 98C223.106 98.0002 223.766 98.3815 224.123 99L322.813 269.868C323.171 270.487 323.171 271.249 322.813 271.868C322.456 272.487 321.796 272.868 321.081 272.868H275.966C275.251 272.868 274.592 272.487 274.234 271.868L253.407 235.811L232.582 271.868C232.225 272.487 231.565 272.868 230.851 272.868H208.293C207.579 272.868 206.918 272.487 206.561 271.868L195.282 252.341C194.925 251.722 194.925 250.959 195.282 250.34L228.54 192.757L198.102 140.056C197.744 139.437 197.744 138.675 198.102 138.056L220.659 99C221.016 98.3814 221.677 98 222.392 98Z" fill="#F3C2A3" stroke="black" stroke-width="4" stroke-linejoin="round"/>
<path d="M197.965 11.5723C201.197 10.6739 203.973 12.1717 206.012 14.2461C208.042 16.3126 209.648 19.2213 210.792 22.0654C211.942 24.9246 212.702 27.9073 212.936 30.2471C213.049 31.3887 213.057 32.5431 212.823 33.4941C212.707 33.9685 212.491 34.5549 212.056 35.0557C211.565 35.6191 210.85 36.0008 210.001 36.001C207.851 36.0015 205.378 37.1569 202.65 39.4766C199.956 41.7683 197.243 45.0021 194.648 48.6904C189.464 56.0593 184.963 64.9337 182.199 70.8467C182.042 71.1826 182.026 71.5618 182.261 72.1152C182.515 72.7147 183.016 73.3816 183.683 74.0498C184.279 74.6478 184.933 75.1697 185.475 75.5654C186.064 75.1622 186.872 74.6323 187.905 74.0068C190.291 72.5627 193.876 70.6064 198.736 68.5098C208.459 64.3154 223.273 59.5629 243.776 57.209C263.694 54.9224 284.804 53.0998 303.471 53.5195C322.037 53.9371 338.597 56.5731 349.107 63.5283C362.207 72.1971 374.393 86.1612 376.489 103.455C378.3 118.394 374.23 137.611 369.124 155.464C366.559 164.431 363.708 173.134 361.151 180.873C358.586 188.639 356.334 195.385 354.931 200.526C350.588 216.442 343.274 233.073 337.075 245.685C333.971 252 331.137 257.326 329.077 261.076C328.047 262.951 327.211 264.433 326.631 265.447C326.341 265.955 326.115 266.346 325.961 266.61C325.884 266.743 325.825 266.844 325.785 266.912C325.765 266.946 325.75 266.972 325.739 266.989C325.734 266.998 325.73 267.005 325.728 267.01C325.726 267.012 325.724 267.014 325.724 267.016L325.723 267.017L324.001 266L325.723 267.018L323.951 270.015L322.254 266.975V266.973C322.253 266.971 322.251 266.969 322.25 266.967C322.247 266.961 322.242 266.953 322.236 266.942C322.224 266.92 322.206 266.886 322.181 266.842C322.131 266.753 322.055 266.619 321.955 266.443C321.756 266.091 321.459 265.568 321.07 264.89C320.292 263.534 319.146 261.558 317.679 259.082C314.743 254.131 310.522 247.184 305.382 239.209C295.092 223.244 281.157 203.219 266.51 186.833C252.44 171.093 245.318 154.167 241.713 141.188C239.91 134.697 238.984 129.183 238.508 125.279C238.27 123.327 238.143 121.775 238.077 120.705C238.044 120.17 238.027 119.755 238.017 119.47C238.012 119.327 238.009 119.217 238.007 119.141C238.006 119.102 238.005 119.072 238.005 119.051C238.005 119.04 238.004 119.032 238.004 119.025V119.015C238.004 119.014 238.005 119.013 240.004 118.992L238.004 119.013L237.988 117.417L239.54 117.047L250.015 114.549L278.667 106.98L268.38 108.964L263.102 109.981L266.431 105.762L270.712 100.333C270.57 100.356 270.426 100.382 270.279 100.406C266.824 100.976 262.025 101.737 256.651 102.504C245.937 104.033 232.821 105.604 223.524 105.695C216.55 105.764 209.234 105.333 203.678 104.887C200.896 104.663 198.546 104.436 196.892 104.264C196.539 104.227 196.218 104.19 195.931 104.159C195.779 104.634 195.595 105.201 195.374 105.841C194.684 107.846 193.656 110.593 192.308 113.56C189.66 119.385 185.596 126.471 180.12 130.149C175.094 133.525 168.19 134.943 162.769 135.555C160.018 135.865 157.568 135.976 155.804 136.01C154.921 136.027 154.207 136.023 153.711 136.017C153.463 136.013 153.268 136.01 153.134 136.006C153.067 136.004 153.015 136.002 152.979 136.001C152.96 136 152.946 135.999 152.936 135.999C152.931 135.999 152.927 135.999 152.924 135.999C152.922 135.999 152.921 135.998 152.92 135.998H152.919L152.999 134L152.918 135.998L152.438 135.979L152.019 135.743L136.018 126.743L135.982 126.724L135.948 126.702L122.955 118.691L122.106 118.168L122.014 117.175L124.005 116.989L122.014 117.174V117.172C122.014 117.171 122.013 117.169 122.013 117.167C122.012 117.163 122.012 117.158 122.012 117.151C122.011 117.138 122.009 117.119 122.007 117.096C122.003 117.049 121.998 116.982 121.991 116.896C121.978 116.724 121.96 116.475 121.942 116.157C121.907 115.521 121.868 114.608 121.855 113.481C121.831 111.231 121.91 108.111 122.328 104.631C123.155 97.7526 125.347 89.0952 131.052 83.1191C136.225 77.6997 144.501 74.0728 151.229 71.8135C154.635 70.6695 157.73 69.8485 159.974 69.3135C161.069 69.0523 161.964 68.859 162.597 68.7285L167.008 58.7568C167.008 58.7167 167.01 58.6734 167.01 58.627C167.011 58.2876 167.005 57.7834 166.979 57.1455C166.926 55.8681 166.791 54.0624 166.461 51.9717C165.949 48.7275 164.98 44.882 163.184 41.2705C160.975 45.3294 158.441 47.8055 155.577 48.7441C151.845 49.967 148.368 48.3446 145.687 46.0068C142.985 43.6515 140.716 40.2787 139.127 37.0352C137.56 33.836 136.501 30.4482 136.501 27.999C136.501 23.9979 138.305 20.8898 141.039 18.6523C143.714 16.4628 147.262 15.1089 150.917 14.3701C154.593 13.6272 158.524 13.4764 162.098 13.8037C165.642 14.1284 168.993 14.9377 171.437 16.2314C173.636 17.396 174.871 19.5113 175.669 21.5986C176.467 23.6856 176.96 26.1209 177.429 28.251C177.92 30.4863 178.385 32.3932 179.086 33.8301C179.655 34.9955 180.267 35.6266 180.997 35.915C182.388 35.4273 183.65 34.276 184.877 32.4287C186.238 30.3782 187.374 27.7555 188.53 24.9424C189.652 22.2145 190.809 19.2649 192.168 16.8984C193.501 14.5781 195.299 12.3133 197.965 11.5723Z" fill="#28633C" stroke="black" stroke-width="4"/>
<path d="M170.501 17.9995C162.001 13.4996 138.501 14.7155 138.501 27.9995C138.501 34.5851 143.945 46.1894 152.997 39C154.679 37.6644 154.499 34.5 152.497 32.5L152.997 28.5L158.497 29.5L161.497 32.5L163.001 36.9998C169.496 46.4998 169.001 59.196 169.001 59.196L163.999 70L149.998 74.5C149.998 74.5 133.496 80.2871 127.998 90.5C120.999 103.501 123.498 115.5 123.498 115.5L130 121L137 125L142.498 115.5L168 111L176.5 96C176.5 96 177.754 89.9413 178 86C178.366 80.1405 176.999 71 176.999 71C182.562 59.1018 188.618 31.0024 199.999 31.0003C202.178 30.9999 203.497 26 203.497 21.5002C203.497 17.9993 201.896 12.556 198.501 13.4998C191.033 15.5756 190.145 35.8008 181.001 37.9992C174.001 36.4992 176.766 21.3165 170.501 17.9995Z" fill="#4FA46A"/>
<path d="M162.998 40.9994C162.998 40.9994 163.565 37.273 162.998 34.9994C162.342 32.3673 161.808 30.4209 159.498 28.9994C156.486 27.1463 151.998 28.9993 151.998 28.9993L153.998 30.999" stroke="black" stroke-width="4"/>
<path d="M120.86 116.606C121.524 116.381 122.257 116.521 122.792 116.974L122.793 116.974C122.794 116.975 122.795 116.976 122.797 116.977C122.8 116.98 122.804 116.984 122.81 116.99C122.822 117 122.841 117.015 122.865 117.035C122.913 117.076 122.985 117.136 123.077 117.215C123.263 117.371 123.533 117.599 123.871 117.883C124.549 118.451 125.498 119.245 126.588 120.148C128.772 121.957 131.503 124.191 133.728 125.921C134.264 126.338 134.552 126.998 134.493 127.674C134.434 128.35 134.037 128.95 133.437 129.268L18.9481 189.925C18.1117 190.368 17.0782 190.164 16.473 189.436C15.8679 188.708 15.8569 187.655 16.4453 186.914L16.4464 186.913C16.447 186.912 16.4476 186.911 16.4487 186.909C16.4508 186.906 16.4536 186.902 16.4576 186.897C16.4659 186.887 16.4783 186.872 16.4942 186.852C16.5264 186.811 16.5741 186.751 16.6364 186.674C16.7608 186.518 16.9446 186.289 17.1822 185.995C17.6575 185.406 18.349 184.554 19.2185 183.499C20.9574 181.389 23.409 178.462 26.2599 175.194C31.9439 168.678 39.2845 160.724 45.7558 155.195C58.6313 144.195 77.466 134.546 92.95 127.677C100.716 124.233 107.687 121.467 112.716 119.563C115.231 118.61 117.263 117.873 118.668 117.372C119.37 117.122 119.916 116.931 120.287 116.802C120.473 116.738 120.615 116.689 120.711 116.657C120.759 116.64 120.795 116.627 120.82 116.619C120.832 116.615 120.842 116.612 120.849 116.61L120.859 116.606C120.859 116.606 120.863 116.616 121.207 117.635L120.86 116.606Z" fill="#F3C2A3" stroke="black" stroke-width="4" stroke-linejoin="round"/>
<path d="M134.917 128.277C135.514 127.502 136.599 127.267 137.471 127.751C139.745 129.014 142.706 130.74 145.086 132.144C146.279 132.847 147.33 133.472 148.084 133.921C148.461 134.146 148.763 134.327 148.972 134.452C149.076 134.514 149.156 134.562 149.211 134.595C149.238 134.611 149.259 134.624 149.273 134.632C149.28 134.636 149.285 134.639 149.289 134.642C149.291 134.643 149.293 134.644 149.294 134.645L149.294 134.644L149.295 134.645L149.451 134.75C150.205 135.304 150.48 136.319 150.087 137.186L148.266 136.36L150.086 137.188L150.085 137.19C150.084 137.192 150.083 137.194 150.081 137.198C150.078 137.204 150.073 137.215 150.068 137.227C150.056 137.253 150.039 137.291 150.016 137.341C149.971 137.44 149.902 137.587 149.813 137.777C149.636 138.159 149.372 138.719 149.027 139.437C148.338 140.873 147.323 142.942 146.017 145.487C143.407 150.574 139.628 157.57 134.954 165.203C125.647 180.404 112.641 198.386 98.0985 208.725C91.7834 213.215 83.5066 217.583 76.8698 220.807C73.5394 222.425 70.5983 223.766 68.489 224.703C67.4342 225.172 66.5867 225.54 66.0014 225.791C65.7091 225.917 65.4821 226.014 65.3274 226.079C65.2501 226.112 65.19 226.137 65.1498 226.154C65.1298 226.162 65.1146 226.169 65.1042 226.174C65.0991 226.176 65.095 226.177 65.0922 226.178C65.0907 226.179 65.0894 226.18 65.0886 226.18L65.0876 226.18C64.2293 226.538 63.2367 226.258 62.6935 225.503C62.1503 224.748 62.1996 223.717 62.8122 223.017L89.436 192.591L113.464 160.831L125.41 145.039L132.244 132.541L132.303 132.44L134.805 128.439L134.917 128.277Z" fill="#F3C2A3" stroke="black" stroke-width="4" stroke-linejoin="round"/>
<path d="M161.043 86.5168C162.637 85.4049 164.557 84.4278 166.713 84.6945C168.934 84.9692 170.73 86.466 172.289 88.6971C175.427 93.1877 176.936 99.4021 176.472 105.267C176.008 111.137 173.529 117.002 168.257 120.426C163.382 123.592 158.5 124.986 153.909 124.285C149.283 123.578 145.338 120.803 142.26 116.399C139.204 112.025 138.349 108.182 140.163 104.501C141.814 101.152 145.533 98.354 150.083 95.3992C152.256 93.9879 154.174 92.3598 155.966 90.7757C157.705 89.2383 159.43 87.6425 161.043 86.5168Z" fill="#F6EFE5" stroke="black" stroke-width="4"/>
<path d="M164.643 97.8748C167.961 104.61 164.712 114.233 157.703 117.394C150.694 120.554 143.175 119.515 139.857 112.779C136.539 106.043 139.583 97.9975 146.592 94.8366C153.6 91.6758 161.325 91.1391 164.643 97.8748Z" fill="black"/>
<path d="M128.886 113.998L127.611 100.286L135.61 89.7861L151.611 79.7857L175.111 75.2857L175.111 82.2857L170.611 83.7857L153.111 94.2857L139.611 114.786L137.001 122L128.886 113.998Z" fill="#4FA46A"/>
<path d="M244.5 121C244.5 121 249.982 119.463 253.5 118.5C274.466 112.76 287 110 307.5 105C316.606 102.779 331.5 105 331.5 105C331.5 105 325.061 114.942 320.5 121C304.137 142.731 266.5 175 266.5 175C266.5 175 257.906 165.472 253.5 157.5C247.501 146.647 244.5 121 244.5 121Z" fill="#4FA46A"/>
<path d="M185.5 78.5012L192.5 88C192.5 88 214.099 77.822 233.5 75C261 71 280.006 69.0005 307 70.5C322.482 71.36 338 75 338 75C338 75 319.5 76.5 308.5 81.5C303.126 83.9428 296.5 94.5 296.5 94.5C296.5 94.5 324.597 88.5504 337 87C353 85 369.5 88 369.5 88C369.5 88 359 69.0009 336 60.0019C323.461 55.096 289.5 54.5003 257.5 57.5001C233.255 59.7728 197 67.5 185.5 78.5012Z" fill="#4FA46A"/>
<path d="M153.61 96.2866L155.002 97.7501L153.61 96.2866ZM139.11 115.287L137.382 114.237L135.818 116.823L138.864 117.258L139.11 115.287ZM143.949 107.286L142.335 106.069L142.274 106.149L142.221 106.236L143.949 107.286ZM142.61 115.787L142.364 117.758L144.025 117.996L144.526 116.423L142.61 115.787ZM153.61 96.2866L152.218 94.8231C149.864 97.0204 147.387 99.8444 145.522 102.085C144.584 103.212 143.79 104.204 143.229 104.916C142.949 105.272 142.727 105.558 142.574 105.756C142.498 105.855 142.439 105.932 142.398 105.985C142.378 106.012 142.363 106.032 142.352 106.046C142.347 106.053 142.343 106.058 142.34 106.062C142.338 106.064 142.337 106.065 142.336 106.067C142.336 106.067 142.336 106.068 142.335 106.068C142.335 106.068 142.335 106.068 142.335 106.068C142.335 106.068 142.335 106.069 143.949 107.286C145.563 108.504 145.563 108.504 145.563 108.504C145.563 108.504 145.563 108.504 145.563 108.504C145.563 108.504 145.563 108.504 145.563 108.503C145.564 108.503 145.564 108.502 145.565 108.5C145.568 108.498 145.571 108.493 145.575 108.487C145.584 108.475 145.598 108.457 145.617 108.433C145.654 108.384 145.71 108.312 145.782 108.217C145.928 108.029 146.142 107.753 146.414 107.408C146.957 106.717 147.729 105.753 148.64 104.658C150.474 102.455 152.828 99.7796 155.002 97.7501L153.61 96.2866ZM139.11 115.287L138.864 117.258L142.364 117.758L142.61 115.787L142.857 113.816L139.356 113.316L139.11 115.287ZM142.61 115.787L144.526 116.423L145.865 112.223L143.949 111.587L142.033 110.952L140.694 115.151L142.61 115.787ZM143.949 107.286L142.221 106.236L137.382 114.237L139.11 115.287L140.838 116.337L145.676 108.336L143.949 107.286ZM170.611 85.7862L170.118 83.8457C163.059 85.4754 156.184 91.1203 152.218 94.8231L153.61 96.2866L155.002 97.7501C158.95 94.0639 165.162 89.0984 171.104 87.7267L170.611 85.7862Z" fill="black"/>
</svg>
